<svg width="39" height="870" viewBox="0 0 39 870" fill="none" xmlns="http://www.w3.org/2000/svg">
<path d="M34.9201 15.0501L28.4001 8.53014C27.6301 7.76014 26.3701 7.76014 25.6001 8.53014L19.0801 15.0501" stroke="#696B86" stroke-width="1.5" stroke-miterlimit="10" stroke-linecap="round" stroke-linejoin="round"/>
<rect x="7" y="40" width="32" height="1" fill="#349FFC"/>
<rect x="15" y="57" width="24" height="1" fill="#696B86"/>
<rect x="15" y="74" width="24" height="1" fill="#696B86"/>
<rect y="91" width="39" height="1" fill="#349FFC"/>
<rect x="15" y="108" width="24" height="1" fill="#696B86"/>
<path d="M4.736 143V141.096C5.36533 140.477 5.94667 139.901 6.48 139.368C6.704 139.144 6.93333 138.915 7.168 138.68C7.40267 138.445 7.62133 138.227 7.824 138.024C8.02667 137.821 8.208 137.64 8.368 137.48C8.528 137.309 8.65067 137.176 8.736 137.08C8.90667 136.877 9.056 136.696 9.184 136.536C9.32267 136.376 9.42933 136.221 9.504 136.072C9.58933 135.912 9.65333 135.757 9.696 135.608C9.73867 135.448 9.76 135.277 9.76 135.096C9.76 134.744 9.62133 134.44 9.344 134.184C9.06667 133.917 8.688 133.784 8.208 133.784C7.728 133.784 7.35467 133.923 7.088 134.2C6.82133 134.467 6.64 134.771 6.544 135.112L4.64 134.328C4.72533 134.04 4.864 133.747 5.056 133.448C5.248 133.139 5.49333 132.867 5.792 132.632C6.09067 132.387 6.44267 132.189 6.848 132.04C7.264 131.88 7.728 131.8 8.24 131.8C8.79467 131.8 9.296 131.885 9.744 132.056C10.192 132.216 10.5707 132.44 10.88 132.728C11.1893 133.016 11.4293 133.357 11.6 133.752C11.7707 134.136 11.856 134.552 11.856 135C11.856 135.683 11.6853 136.312 11.344 136.888C11.0133 137.453 10.608 137.981 10.128 138.472L8.752 139.848C8.38933 140.211 7.97867 140.616 7.52 141.064L7.584 141.16H12.016V143H4.736ZM18.0148 143.256C17.3108 143.256 16.6761 143.112 16.1108 142.824C15.5454 142.525 15.0601 142.12 14.6548 141.608C14.2601 141.096 13.9561 140.493 13.7428 139.8C13.5294 139.096 13.4228 138.339 13.4228 137.528C13.4228 136.717 13.5294 135.965 13.7428 135.272C13.9561 134.568 14.2601 133.96 14.6548 133.448C15.0601 132.936 15.5454 132.536 16.1108 132.248C16.6761 131.949 17.3108 131.8 18.0148 131.8C18.7188 131.8 19.3534 131.949 19.9188 132.248C20.4841 132.536 20.9641 132.936 21.3588 133.448C21.7641 133.96 22.0734 134.568 22.2868 135.272C22.5001 135.965 22.6068 136.717 22.6068 137.528C22.6068 138.339 22.5001 139.096 22.2868 139.8C22.0734 140.493 21.7641 141.096 21.3588 141.608C20.9641 142.12 20.4841 142.525 19.9188 142.824C19.3534 143.112 18.7188 143.256 18.0148 143.256ZM18.0148 141.272C18.3988 141.272 18.7454 141.181 19.0548 141C19.3641 140.808 19.6254 140.547 19.8388 140.216C20.0628 139.875 20.2281 139.475 20.3348 139.016C20.4521 138.557 20.5108 138.061 20.5108 137.528C20.5108 136.984 20.4521 136.488 20.3348 136.04C20.2281 135.581 20.0628 135.187 19.8388 134.856C19.6254 134.515 19.3641 134.253 19.0548 134.072C18.7454 133.88 18.3988 133.784 18.0148 133.784C17.6201 133.784 17.2681 133.88 16.9588 134.072C16.6494 134.253 16.3881 134.515 16.1748 134.856C15.9614 135.187 15.7961 135.581 15.6788 136.04C15.5721 136.488 15.5188 136.984 15.5188 137.528C15.5188 138.061 15.5721 138.557 15.6788 139.016C15.7961 139.475 15.9614 139.875 16.1748 140.216C16.3881 140.547 16.6494 140.808 16.9588 141C17.2681 141.181 17.6201 141.272 18.0148 141.272ZM23.8923 143V141.096C24.5216 140.477 25.1029 139.901 25.6363 139.368C25.8603 139.144 26.0896 138.915 26.3243 138.68C26.5589 138.445 26.7776 138.227 26.9803 138.024C27.1829 137.821 27.3643 137.64 27.5243 137.48C27.6843 137.309 27.8069 137.176 27.8923 137.08C28.0629 136.877 28.2123 136.696 28.3403 136.536C28.4789 136.376 28.5856 136.221 28.6603 136.072C28.7456 135.912 28.8096 135.757 28.8523 135.608C28.8949 135.448 28.9163 135.277 28.9163 135.096C28.9163 134.744 28.7776 134.44 28.5003 134.184C28.2229 133.917 27.8443 133.784 27.3643 133.784C26.8843 133.784 26.5109 133.923 26.2443 134.2C25.9776 134.467 25.7963 134.771 25.7003 135.112L23.7963 134.328C23.8816 134.04 24.0203 133.747 24.2122 133.448C24.4043 133.139 24.6496 132.867 24.9483 132.632C25.2469 132.387 25.5989 132.189 26.0043 132.04C26.4203 131.88 26.8843 131.8 27.3963 131.8C27.9509 131.8 28.4523 131.885 28.9003 132.056C29.3483 132.216 29.7269 132.44 30.0363 132.728C30.3456 133.016 30.5856 133.357 30.7563 133.752C30.9269 134.136 31.0123 134.552 31.0123 135C31.0123 135.683 30.8416 136.312 30.5003 136.888C30.1696 137.453 29.7643 137.981 29.2843 138.472L27.9083 139.848C27.5456 140.211 27.1349 140.616 26.6763 141.064L26.7403 141.16H31.1723V143H23.8923ZM35.0628 143V134.52L33.1268 135.336L32.3588 133.56L35.5748 132.056H37.1588V143H35.0628Z" fill="#6E6F7D"/>
<rect x="15" y="165" width="24" height="1" fill="#696B86"/>
<rect x="15" y="182" width="24" height="1" fill="#696B86"/>
<rect x="15" y="199" width="24" height="1" fill="#696B86"/>
<rect x="15" y="216" width="24" height="1" fill="#696B86"/>
<rect x="15" y="233" width="24" height="1" fill="#696B86"/>
<rect x="15" y="250" width="24" height="1" fill="#696B86"/>
<rect x="15" y="267" width="24" height="1" fill="#696B86"/>
<rect x="15" y="284" width="24" height="1" fill="#696B86"/>
<rect x="15" y="301" width="24" height="1" fill="#696B86"/>
<path d="M0.736 336V334.096C1.36533 333.477 1.94667 332.901 2.48 332.368C2.704 332.144 2.93333 331.915 3.168 331.68C3.40267 331.445 3.62133 331.227 3.824 331.024C4.02667 330.821 4.208 330.64 4.368 330.48C4.528 330.309 4.65067 330.176 4.736 330.08C4.90667 329.877 5.056 329.696 5.184 329.536C5.32267 329.376 5.42933 329.221 5.504 329.072C5.58933 328.912 5.65333 328.757 5.696 328.608C5.73867 328.448 5.76 328.277 5.76 328.096C5.76 327.744 5.62133 327.44 5.344 327.184C5.06667 326.917 4.688 326.784 4.208 326.784C3.728 326.784 3.35467 326.923 3.088 327.2C2.82133 327.467 2.64 327.771 2.544 328.112L0.64 327.328C0.725333 327.04 0.864 326.747 1.056 326.448C1.248 326.139 1.49333 325.867 1.792 325.632C2.09067 325.387 2.44267 325.189 2.848 325.04C3.264 324.88 3.728 324.8 4.24 324.8C4.79467 324.8 5.296 324.885 5.744 325.056C6.192 325.216 6.57067 325.44 6.88 325.728C7.18933 326.016 7.42933 326.357 7.6 326.752C7.77067 327.136 7.856 327.552 7.856 328C7.856 328.683 7.68533 329.312 7.344 329.888C7.01333 330.453 6.608 330.981 6.128 331.472L4.752 332.848C4.38933 333.211 3.97867 333.616 3.52 334.064L3.584 334.16H8.016V336H0.736ZM14.0148 336.256C13.3108 336.256 12.6761 336.112 12.1108 335.824C11.5454 335.525 11.0601 335.12 10.6548 334.608C10.2601 334.096 9.95608 333.493 9.74275 332.8C9.52942 332.096 9.42275 331.339 9.42275 330.528C9.42275 329.717 9.52942 328.965 9.74275 328.272C9.95608 327.568 10.2601 326.96 10.6548 326.448C11.0601 325.936 11.5454 325.536 12.1108 325.248C12.6761 324.949 13.3108 324.8 14.0148 324.8C14.7188 324.8 15.3534 324.949 15.9188 325.248C16.4841 325.536 16.9641 325.936 17.3588 326.448C17.7641 326.96 18.0734 327.568 18.2868 328.272C18.5001 328.965 18.6068 329.717 18.6068 330.528C18.6068 331.339 18.5001 332.096 18.2868 332.8C18.0734 333.493 17.7641 334.096 17.3588 334.608C16.9641 335.12 16.4841 335.525 15.9188 335.824C15.3534 336.112 14.7188 336.256 14.0148 336.256ZM14.0148 334.272C14.3988 334.272 14.7454 334.181 15.0548 334C15.3641 333.808 15.6254 333.547 15.8388 333.216C16.0628 332.875 16.2281 332.475 16.3348 332.016C16.4521 331.557 16.5108 331.061 16.5108 330.528C16.5108 329.984 16.4521 329.488 16.3348 329.04C16.2281 328.581 16.0628 328.187 15.8388 327.856C15.6254 327.515 15.3641 327.253 15.0548 327.072C14.7454 326.88 14.3988 326.784 14.0148 326.784C13.6201 326.784 13.2681 326.88 12.9588 327.072C12.6494 327.253 12.3881 327.515 12.1748 327.856C11.9614 328.187 11.7961 328.581 11.6788 329.04C11.5721 329.488 11.5188 329.984 11.5188 330.528C11.5188 331.061 11.5721 331.557 11.6788 332.016C11.7961 332.475 11.9614 332.875 12.1748 333.216C12.3881 333.547 12.6494 333.808 12.9588 334C13.2681 334.181 13.6201 334.272 14.0148 334.272ZM19.8923 336V334.096C20.5216 333.477 21.1029 332.901 21.6363 332.368C21.8603 332.144 22.0896 331.915 22.3243 331.68C22.5589 331.445 22.7776 331.227 22.9803 331.024C23.1829 330.821 23.3643 330.64 23.5243 330.48C23.6843 330.309 23.8069 330.176 23.8923 330.08C24.0629 329.877 24.2123 329.696 24.3403 329.536C24.4789 329.376 24.5856 329.221 24.6603 329.072C24.7456 328.912 24.8096 328.757 24.8523 328.608C24.8949 328.448 24.9163 328.277 24.9163 328.096C24.9163 327.744 24.7776 327.44 24.5003 327.184C24.2229 326.917 23.8443 326.784 23.3643 326.784C22.8843 326.784 22.5109 326.923 22.2443 327.2C21.9776 327.467 21.7963 327.771 21.7003 328.112L19.7963 327.328C19.8816 327.04 20.0203 326.747 20.2122 326.448C20.4043 326.139 20.6496 325.867 20.9483 325.632C21.2469 325.387 21.5989 325.189 22.0043 325.04C22.4203 324.88 22.8843 324.8 23.3963 324.8C23.9509 324.8 24.4523 324.885 24.9003 325.056C25.3483 325.216 25.7269 325.44 26.0363 325.728C26.3456 326.016 26.5856 326.357 26.7563 326.752C26.9269 327.136 27.0123 327.552 27.0123 328C27.0123 328.683 26.8416 329.312 26.5003 329.888C26.1696 330.453 25.7643 330.981 25.2843 331.472L23.9083 332.848C23.5456 333.211 23.1349 333.616 22.6763 334.064L22.7403 334.16H27.1723V336H19.8923ZM33.171 336.256C32.467 336.256 31.8323 336.112 31.267 335.824C30.7017 335.525 30.2163 335.12 29.811 334.608C29.4163 334.096 29.1123 333.493 28.899 332.8C28.6857 332.096 28.579 331.339 28.579 330.528C28.579 329.717 28.6857 328.965 28.899 328.272C29.1123 327.568 29.4163 326.96 29.811 326.448C30.2163 325.936 30.7017 325.536 31.267 325.248C31.8323 324.949 32.467 324.8 33.171 324.8C33.875 324.8 34.5097 324.949 35.075 325.248C35.6403 325.536 36.1203 325.936 36.515 326.448C36.9203 326.96 37.2297 327.568 37.443 328.272C37.6563 328.965 37.763 329.717 37.763 330.528C37.763 331.339 37.6563 332.096 37.443 332.8C37.2297 333.493 36.9203 334.096 36.515 334.608C36.1203 335.12 35.6403 335.525 35.075 335.824C34.5097 336.112 33.875 336.256 33.171 336.256ZM33.171 334.272C33.555 334.272 33.9017 334.181 34.211 334C34.5203 333.808 34.7817 333.547 34.995 333.216C35.219 332.875 35.3843 332.475 35.491 332.016C35.6083 331.557 35.667 331.061 35.667 330.528C35.667 329.984 35.6083 329.488 35.491 329.04C35.3843 328.581 35.219 328.187 34.995 327.856C34.7817 327.515 34.5203 327.253 34.211 327.072C33.9017 326.88 33.555 326.784 33.171 326.784C32.7763 326.784 32.4243 326.88 32.115 327.072C31.8057 327.253 31.5443 327.515 31.331 327.856C31.1177 328.187 30.9523 328.581 30.835 329.04C30.7283 329.488 30.675 329.984 30.675 330.528C30.675 331.061 30.7283 331.557 30.835 332.016C30.9523 332.475 31.1177 332.875 31.331 333.216C31.5443 333.547 31.8057 333.808 32.115 334C32.4243 334.181 32.7763 334.272 33.171 334.272Z" fill="#6E6F7D"/>
<rect x="15" y="358" width="24" height="1" fill="#696B86"/>
<rect x="15" y="375" width="24" height="1" fill="#696B86"/>
<rect x="15" y="392" width="24" height="1" fill="#696B86"/>
<rect x="15" y="409" width="24" height="1" fill="#696B86"/>
<rect x="15" y="426" width="24" height="1" fill="#696B86"/>
<rect x="15" y="443" width="24" height="1" fill="#696B86"/>
<rect x="15" y="460" width="24" height="1" fill="#696B86"/>
<rect x="15" y="477" width="24" height="1" fill="#696B86"/>
<rect x="15" y="494" width="24" height="1" fill="#696B86"/>
<path d="M3.736 529V527.096C4.36533 526.477 4.94667 525.901 5.48 525.368C5.704 525.144 5.93333 524.915 6.168 524.68C6.40267 524.445 6.62133 524.227 6.824 524.024C7.02667 523.821 7.208 523.64 7.368 523.48C7.528 523.309 7.65067 523.176 7.736 523.08C7.90667 522.877 8.056 522.696 8.184 522.536C8.32267 522.376 8.42933 522.221 8.504 522.072C8.58933 521.912 8.65333 521.757 8.696 521.608C8.73867 521.448 8.76 521.277 8.76 521.096C8.76 520.744 8.62133 520.44 8.344 520.184C8.06667 519.917 7.688 519.784 7.208 519.784C6.728 519.784 6.35467 519.923 6.088 520.2C5.82133 520.467 5.64 520.771 5.544 521.112L3.64 520.328C3.72533 520.04 3.864 519.747 4.056 519.448C4.248 519.139 4.49333 518.867 4.792 518.632C5.09067 518.387 5.44267 518.189 5.848 518.04C6.264 517.88 6.728 517.8 7.24 517.8C7.79467 517.8 8.296 517.885 8.744 518.056C9.192 518.216 9.57067 518.44 9.88 518.728C10.1893 519.016 10.4293 519.357 10.6 519.752C10.7707 520.136 10.856 520.552 10.856 521C10.856 521.683 10.6853 522.312 10.344 522.888C10.0133 523.453 9.608 523.981 9.128 524.472L7.752 525.848C7.38933 526.211 6.97867 526.616 6.52 527.064L6.584 527.16H11.016V529H3.736ZM17.0148 529.256C16.3108 529.256 15.6761 529.112 15.1108 528.824C14.5454 528.525 14.0601 528.12 13.6548 527.608C13.2601 527.096 12.9561 526.493 12.7428 525.8C12.5294 525.096 12.4228 524.339 12.4228 523.528C12.4228 522.717 12.5294 521.965 12.7428 521.272C12.9561 520.568 13.2601 519.96 13.6548 519.448C14.0601 518.936 14.5454 518.536 15.1108 518.248C15.6761 517.949 16.3108 517.8 17.0148 517.8C17.7188 517.8 18.3534 517.949 18.9188 518.248C19.4841 518.536 19.9641 518.936 20.3588 519.448C20.7641 519.96 21.0734 520.568 21.2868 521.272C21.5001 521.965 21.6068 522.717 21.6068 523.528C21.6068 524.339 21.5001 525.096 21.2868 525.8C21.0734 526.493 20.7641 527.096 20.3588 527.608C19.9641 528.12 19.4841 528.525 18.9188 528.824C18.3534 529.112 17.7188 529.256 17.0148 529.256ZM17.0148 527.272C17.3988 527.272 17.7454 527.181 18.0548 527C18.3641 526.808 18.6254 526.547 18.8388 526.216C19.0628 525.875 19.2281 525.475 19.3348 525.016C19.4521 524.557 19.5108 524.061 19.5108 523.528C19.5108 522.984 19.4521 522.488 19.3348 522.04C19.2281 521.581 19.0628 521.187 18.8388 520.856C18.6254 520.515 18.3641 520.253 18.0548 520.072C17.7454 519.88 17.3988 519.784 17.0148 519.784C16.6201 519.784 16.2681 519.88 15.9588 520.072C15.6494 520.253 15.3881 520.515 15.1748 520.856C14.9614 521.187 14.7961 521.581 14.6788 522.04C14.5721 522.488 14.5188 522.984 14.5188 523.528C14.5188 524.061 14.5721 524.557 14.6788 525.016C14.7961 525.475 14.9614 525.875 15.1748 526.216C15.3881 526.547 15.6494 526.808 15.9588 527C16.2681 527.181 16.6201 527.272 17.0148 527.272ZM25.5003 529V520.52L23.5643 521.336L22.7963 519.56L26.0123 518.056H27.5963V529H25.5003ZM32.8735 525.08C32.4575 525.08 32.0522 524.995 31.6575 524.824C31.2628 524.653 30.9108 524.413 30.6015 524.104C30.2922 523.784 30.0415 523.411 29.8495 522.984C29.6682 522.547 29.5775 522.067 29.5775 521.544C29.5775 521 29.6842 520.499 29.8975 520.04C30.1108 519.571 30.3935 519.171 30.7455 518.84C31.1082 518.509 31.5188 518.253 31.9775 518.072C32.4468 517.88 32.9375 517.784 33.4495 517.784C34.0362 517.784 34.5695 517.891 35.0495 518.104C35.5402 518.307 35.9562 518.584 36.2975 518.936C36.6495 519.277 36.9162 519.683 37.0975 520.152C37.2895 520.611 37.3855 521.096 37.3855 521.608C37.3855 522.344 37.2362 523.021 36.9375 523.64C36.6495 524.248 36.2815 524.872 35.8335 525.512L33.1775 529.304L31.5615 528.2L33.8015 525.016L33.7215 524.92C33.4762 525.027 33.1935 525.08 32.8735 525.08ZM33.4815 519.72C33.2362 519.72 33.0015 519.763 32.7775 519.848C32.5642 519.933 32.3722 520.056 32.2015 520.216C32.0308 520.376 31.8922 520.568 31.7855 520.792C31.6895 521.005 31.6415 521.245 31.6415 521.512C31.6415 521.789 31.6895 522.04 31.7855 522.264C31.8922 522.477 32.0308 522.664 32.2015 522.824C32.3722 522.984 32.5642 523.107 32.7775 523.192C33.0015 523.277 33.2362 523.32 33.4815 523.32C33.7162 523.32 33.9455 523.277 34.1695 523.192C34.3935 523.107 34.5908 522.984 34.7615 522.824C34.9428 522.664 35.0815 522.477 35.1775 522.264C35.2842 522.04 35.3375 521.789 35.3375 521.512C35.3375 521.245 35.2842 521.005 35.1775 520.792C35.0815 520.568 34.9428 520.376 34.7615 520.216C34.5908 520.056 34.3935 519.933 34.1695 519.848C33.9455 519.763 33.7162 519.72 33.4815 519.72Z" fill="#6E6F7D"/>
<rect x="15" y="551" width="24" height="1" fill="#696B86"/>
<rect x="15" y="568" width="24" height="1" fill="#696B86"/>
<rect x="15" y="585" width="24" height="1" fill="#696B86"/>
<rect x="15" y="602" width="24" height="1" fill="#696B86"/>
<rect x="15" y="619" width="24" height="1" fill="#696B86"/>
<rect x="15" y="636" width="24" height="1" fill="#696B86"/>
<rect x="15" y="653" width="24" height="1" fill="#696B86"/>
<rect x="15" y="670" width="24" height="1" fill="#696B86"/>
<path d="M3.736 705V703.096C4.36533 702.477 4.94667 701.901 5.48 701.368C5.704 701.144 5.93333 700.915 6.168 700.68C6.40267 700.445 6.62133 700.227 6.824 700.024C7.02667 699.821 7.208 699.64 7.368 699.48C7.528 699.309 7.65067 699.176 7.736 699.08C7.90667 698.877 8.056 698.696 8.184 698.536C8.32267 698.376 8.42933 698.221 8.504 698.072C8.58933 697.912 8.65333 697.757 8.696 697.608C8.73867 697.448 8.76 697.277 8.76 697.096C8.76 696.744 8.62133 696.44 8.344 696.184C8.06667 695.917 7.688 695.784 7.208 695.784C6.728 695.784 6.35467 695.923 6.088 696.2C5.82133 696.467 5.64 696.771 5.544 697.112L3.64 696.328C3.72533 696.04 3.864 695.747 4.056 695.448C4.248 695.139 4.49333 694.867 4.792 694.632C5.09067 694.387 5.44267 694.189 5.848 694.04C6.264 693.88 6.728 693.8 7.24 693.8C7.79467 693.8 8.296 693.885 8.744 694.056C9.192 694.216 9.57067 694.44 9.88 694.728C10.1893 695.016 10.4293 695.357 10.6 695.752C10.7707 696.136 10.856 696.552 10.856 697C10.856 697.683 10.6853 698.312 10.344 698.888C10.0133 699.453 9.608 699.981 9.128 700.472L7.752 701.848C7.38933 702.211 6.97867 702.616 6.52 703.064L6.584 703.16H11.016V705H3.736ZM17.0148 705.256C16.3108 705.256 15.6761 705.112 15.1108 704.824C14.5454 704.525 14.0601 704.12 13.6548 703.608C13.2601 703.096 12.9561 702.493 12.7428 701.8C12.5294 701.096 12.4228 700.339 12.4228 699.528C12.4228 698.717 12.5294 697.965 12.7428 697.272C12.9561 696.568 13.2601 695.96 13.6548 695.448C14.0601 694.936 14.5454 694.536 15.1108 694.248C15.6761 693.949 16.3108 693.8 17.0148 693.8C17.7188 693.8 18.3534 693.949 18.9188 694.248C19.4841 694.536 19.9641 694.936 20.3588 695.448C20.7641 695.96 21.0734 696.568 21.2868 697.272C21.5001 697.965 21.6068 698.717 21.6068 699.528C21.6068 700.339 21.5001 701.096 21.2868 701.8C21.0734 702.493 20.7641 703.096 20.3588 703.608C19.9641 704.12 19.4841 704.525 18.9188 704.824C18.3534 705.112 17.7188 705.256 17.0148 705.256ZM17.0148 703.272C17.3988 703.272 17.7454 703.181 18.0548 703C18.3641 702.808 18.6254 702.547 18.8388 702.216C19.0628 701.875 19.2281 701.475 19.3348 701.016C19.4521 700.557 19.5108 700.061 19.5108 699.528C19.5108 698.984 19.4521 698.488 19.3348 698.04C19.2281 697.581 19.0628 697.187 18.8388 696.856C18.6254 696.515 18.3641 696.253 18.0548 696.072C17.7454 695.88 17.3988 695.784 17.0148 695.784C16.6201 695.784 16.2681 695.88 15.9588 696.072C15.6494 696.253 15.3881 696.515 15.1748 696.856C14.9614 697.187 14.7961 697.581 14.6788 698.04C14.5721 698.488 14.5188 698.984 14.5188 699.528C14.5188 700.061 14.5721 700.557 14.6788 701.016C14.7961 701.475 14.9614 701.875 15.1748 702.216C15.3881 702.547 15.6494 702.808 15.9588 703C16.2681 703.181 16.6201 703.272 17.0148 703.272ZM25.5003 705V696.52L23.5643 697.336L22.7963 695.56L26.0123 694.056H27.5963V705H25.5003ZM33.5455 705.256C32.9588 705.256 32.4202 705.171 31.9295 705C31.4495 704.829 31.0335 704.6 30.6815 704.312C30.3295 704.013 30.0575 703.667 29.8655 703.272C29.6735 702.867 29.5775 702.429 29.5775 701.96C29.5775 701.64 29.6202 701.341 29.7055 701.064C29.8015 700.787 29.9242 700.536 30.0735 700.312C30.2335 700.088 30.4148 699.891 30.6175 699.72C30.8202 699.549 31.0335 699.405 31.2575 699.288V699.16C30.9055 698.925 30.5962 698.616 30.3295 698.232C30.0735 697.848 29.9455 697.4 29.9455 696.888C29.9455 696.451 30.0362 696.045 30.2175 695.672C30.3988 695.288 30.6495 694.957 30.9695 694.68C31.2895 694.403 31.6682 694.189 32.1055 694.04C32.5428 693.88 33.0228 693.8 33.5455 693.8C34.0682 693.8 34.5482 693.88 34.9855 694.04C35.4228 694.189 35.8015 694.403 36.1215 694.68C36.4415 694.957 36.6922 695.288 36.8735 695.672C37.0548 696.045 37.1455 696.451 37.1455 696.888C37.1455 697.4 37.0122 697.848 36.7455 698.232C36.4895 698.616 36.1855 698.925 35.8335 699.16V699.288C36.0575 699.405 36.2708 699.549 36.4735 699.72C36.6762 699.891 36.8522 700.088 37.0015 700.312C37.1615 700.536 37.2842 700.787 37.3695 701.064C37.4655 701.341 37.5135 701.64 37.5135 701.96C37.5135 702.429 37.4175 702.867 37.2255 703.272C37.0335 703.667 36.7615 704.013 36.4095 704.312C36.0575 704.6 35.6362 704.829 35.1455 705C34.6655 705.171 34.1322 705.256 33.5455 705.256ZM33.5455 698.376C33.9935 698.376 34.3668 698.253 34.6655 698.008C34.9642 697.752 35.1135 697.421 35.1135 697.016C35.1135 696.6 34.9642 696.275 34.6655 696.04C34.3668 695.795 33.9935 695.672 33.5455 695.672C33.0975 695.672 32.7242 695.795 32.4255 696.04C32.1268 696.275 31.9775 696.6 31.9775 697.016C31.9775 697.421 32.1268 697.752 32.4255 698.008C32.7242 698.253 33.0975 698.376 33.5455 698.376ZM33.5455 703.32C34.0895 703.32 34.5375 703.181 34.8895 702.904C35.2415 702.616 35.4175 702.232 35.4175 701.752C35.4175 701.528 35.3695 701.325 35.2735 701.144C35.1775 700.952 35.0442 700.787 34.8735 700.648C34.7135 700.509 34.5162 700.403 34.2815 700.328C34.0575 700.253 33.8122 700.216 33.5455 700.216C33.2788 700.216 33.0282 700.253 32.7935 700.328C32.5695 700.403 32.3722 700.509 32.2015 700.648C32.0415 700.787 31.9135 700.952 31.8175 701.144C31.7215 701.325 31.6735 701.528 31.6735 701.752C31.6735 702.232 31.8495 702.616 32.2015 702.904C32.5535 703.181 33.0015 703.32 33.5455 703.32Z" fill="#6E6F7D"/>
<rect x="15" y="727" width="24" height="1" fill="#696B86"/>
<rect x="15" y="744" width="24" height="1" fill="#696B86"/>
<rect x="15" y="761" width="24" height="1" fill="#696B86"/>
<rect x="15" y="778" width="24" height="1" fill="#696B86"/>
<rect x="15" y="795" width="24" height="1" fill="#696B86"/>
<rect x="15" y="812" width="24" height="1" fill="#696B86"/>
<rect x="15" y="829" width="24" height="1" fill="#696B86"/>
<path d="M34.9201 854.95L28.4001 861.47C27.6301 862.24 26.3701 862.24 25.6001 861.47L19.0801 854.95" stroke="#696B86" stroke-width="1.5" stroke-miterlimit="10" stroke-linecap="round" stroke-linejoin="round"/>
</svg>
