<svg width="24" height="24" viewBox="0 0 24 24" fill="none" xmlns="http://www.w3.org/2000/svg">
<path d="M9 10C10.1046 10 11 9.10457 11 8C11 6.89543 10.1046 6 9 6C7.89543 6 7 6.89543 7 8C7 9.10457 7.89543 10 9 10Z" stroke="#696B86" stroke-width="1.5" stroke-linecap="round" stroke-linejoin="round"/>
<path d="M12 2H9C4 2 2 4 2 9V15C2 20 4 22 9 22H15C20 22 22 20 22 15V11" stroke="#696B86" stroke-width="1.5" stroke-linecap="round" stroke-linejoin="round"/>
<path d="M16.1199 5.11002C15.7899 4.07002 16.1799 2.78002 17.2599 2.43002C17.8299 2.25002 18.5399 2.40002 18.9399 2.95002C19.3199 2.38002 20.0499 2.24002 20.6199 2.43002C21.7099 2.78002 22.0999 4.07002 21.7699 5.11002C21.2499 6.75002 19.4499 7.61002 18.9499 7.61002C18.4399 7.61002 16.6499 6.77002 16.1199 5.11002Z" stroke="#696B86" stroke-width="1.5" stroke-linecap="round" stroke-linejoin="round"/>
<path d="M2.66992 18.9501L7.59992 15.6401C8.38992 15.1101 9.52992 15.1701 10.2399 15.7801L10.5699 16.0701C11.3499 16.7401 12.6099 16.7401 13.3899 16.0701L17.5499 12.5001C18.3299 11.8301 19.5899 11.8301 20.3699 12.5001L21.9999 13.9001" stroke="#696B86" stroke-width="1.5" stroke-linecap="round" stroke-linejoin="round"/>
</svg>
