<svg width="70" height="10" viewBox="0 0 70 10" fill="none" xmlns="http://www.w3.org/2000/svg">
<path d="M0 0.56H2.06432V8.13333H6.53701V9.89333H0V0.56Z" fill="#FF04B4"/>
<path d="M10.3901 2.61333C11.452 2.61333 12.2675 2.88 12.8367 3.41333C13.4059 3.93778 13.6905 4.73333 13.6905 5.8V9.89333H11.83V9C11.4562 9.66667 10.7596 10 9.74021 10C9.21351 10 8.75478 9.90667 8.364 9.72C7.98172 9.53333 7.68863 9.27555 7.48475 8.94667C7.28087 8.61778 7.17893 8.24444 7.17893 7.82667C7.17893 7.16 7.41679 6.63556 7.89252 6.25333C8.37674 5.87111 9.12007 5.68 10.1225 5.68H11.7026C11.7026 5.22667 11.5709 4.88 11.3076 4.64C11.0442 4.39111 10.6492 4.26667 10.1225 4.26667C9.7572 4.26667 9.39616 4.32889 9.03936 4.45333C8.69106 4.56889 8.39373 4.72889 8.14737 4.93333L7.43378 3.48C7.80757 3.20444 8.25356 2.99111 8.77176 2.84C9.29846 2.68889 9.83791 2.61333 10.3901 2.61333ZM10.2372 8.6C10.577 8.6 10.8786 8.52 11.1419 8.36C11.4053 8.19111 11.5922 7.94667 11.7026 7.62667V6.89333H10.3391C9.52359 6.89333 9.11582 7.17333 9.11582 7.73333C9.11582 8 9.21351 8.21333 9.4089 8.37333C9.61279 8.52444 9.88888 8.6 10.2372 8.6Z" fill="#FF04B4"/>
<path d="M17.3882 3.66667C17.6261 3.32 17.9447 3.05778 18.3439 2.88C18.7517 2.70222 19.2189 2.61333 19.7456 2.61333V4.53333C19.5248 4.51556 19.3761 4.50667 19.2996 4.50667C18.7305 4.50667 18.2845 4.67556 17.9617 5.01333C17.6388 5.34222 17.4774 5.84 17.4774 6.50667V9.89333H15.4896V2.72H17.3882V3.66667Z" fill="#FF04B4"/>
<path d="M27.9687 2.72L25.0761 9.89333H23.0245L20.1446 2.72H22.1962L24.0949 7.6L26.0573 2.72H27.9687Z" fill="#FF04B4"/>
<path d="M31.321 2.61333C32.3829 2.61333 33.1984 2.88 33.7676 3.41333C34.3368 3.93778 34.6214 4.73333 34.6214 5.8V9.89333H32.7609V9C32.3871 9.66667 31.6905 10 30.6711 10C30.1444 10 29.6857 9.90667 29.2949 9.72C28.9126 9.53333 28.6195 9.27555 28.4157 8.94667C28.2118 8.61778 28.1098 8.24444 28.1098 7.82667C28.1098 7.16 28.3477 6.63556 28.8234 6.25333C29.3076 5.87111 30.051 5.68 31.0534 5.68H32.6335C32.6335 5.22667 32.5018 4.88 32.2385 4.64C31.9751 4.39111 31.5801 4.26667 31.0534 4.26667C30.6881 4.26667 30.3271 4.32889 29.9703 4.45333C29.622 4.56889 29.3246 4.72889 29.0783 4.93333L28.3647 3.48C28.7385 3.20444 29.1845 2.99111 29.7027 2.84C30.2294 2.68889 30.7688 2.61333 31.321 2.61333ZM31.1681 8.6C31.5079 8.6 31.8095 8.52 32.0728 8.36C32.3362 8.19111 32.5231 7.94667 32.6335 7.62667V6.89333H31.27C30.4545 6.89333 30.0467 7.17333 30.0467 7.73333C30.0467 8 30.1444 8.21333 30.3398 8.37333C30.5437 8.52444 30.8198 8.6 31.1681 8.6Z" fill="#FF04B4"/>
<path d="M40.1694 0.56H42.2337V8.13333H46.7064V9.89333H40.1694V0.56Z" fill="#FF04B4"/>
<path d="M50.5595 2.61333C51.6214 2.61333 52.4369 2.88 53.0061 3.41333C53.5753 3.93778 53.8599 4.73333 53.8599 5.8V9.89333H51.9994V9C51.6256 9.66667 50.929 10 49.9096 10C49.3829 10 48.9242 9.90667 48.5334 9.72C48.1511 9.53333 47.858 9.27555 47.6542 8.94667C47.4503 8.61778 47.3483 8.24444 47.3483 7.82667C47.3483 7.16 47.5862 6.63556 48.0619 6.25333C48.5462 5.87111 49.2895 5.68 50.2919 5.68H51.872C51.872 5.22667 51.7403 4.88 51.477 4.64C51.2136 4.39111 50.8186 4.26667 50.2919 4.26667C49.9266 4.26667 49.5656 4.32889 49.2088 4.45333C48.8605 4.56889 48.5631 4.72889 48.3168 4.93333L47.6032 3.48C47.977 3.20444 48.423 2.99111 48.9412 2.84C49.4679 2.68889 50.0073 2.61333 50.5595 2.61333ZM50.4066 8.6C50.7464 8.6 51.048 8.52 51.3113 8.36C51.5747 8.19111 51.7616 7.94667 51.872 7.62667V6.89333H50.5085C49.693 6.89333 49.2852 7.17333 49.2852 7.73333C49.2852 8 49.3829 8.21333 49.5783 8.37333C49.7822 8.52444 50.0583 8.6 50.4066 8.6Z" fill="#FF04B4"/>
<path d="M59.7112 2.61333C60.3483 2.61333 60.926 2.76889 61.4442 3.08C61.9709 3.38222 62.3829 3.81333 62.6802 4.37333C62.9775 4.92444 63.1262 5.56889 63.1262 6.30667C63.1262 7.04444 62.9775 7.69333 62.6802 8.25333C62.3829 8.80444 61.9709 9.23555 61.4442 9.54667C60.926 9.84889 60.3483 10 59.7112 10C58.7682 10 58.0504 9.68889 57.5576 9.06667V9.89333H55.659V0H57.6468V3.48C58.1481 2.90222 58.8362 2.61333 59.7112 2.61333ZM59.3671 8.29333C59.8768 8.29333 60.2931 8.11556 60.6159 7.76C60.9472 7.39556 61.1129 6.91111 61.1129 6.30667C61.1129 5.70222 60.9472 5.22222 60.6159 4.86667C60.2931 4.50222 59.8768 4.32 59.3671 4.32C58.8574 4.32 58.4369 4.50222 58.1056 4.86667C57.7828 5.22222 57.6214 5.70222 57.6214 6.30667C57.6214 6.91111 57.7828 7.39556 58.1056 7.76C58.4369 8.11556 58.8574 8.29333 59.3671 8.29333Z" fill="#FF04B4"/>
<path d="M66.7634 10C66.1942 10 65.6377 9.92889 65.0941 9.78667C64.5504 9.63556 64.1171 9.44889 63.7943 9.22667L64.4569 7.73333C64.7627 7.93778 65.1323 8.10667 65.5655 8.24C65.9988 8.36444 66.4235 8.42667 66.8398 8.42667C67.6808 8.42667 68.1013 8.20889 68.1013 7.77333C68.1013 7.56889 67.9867 7.42222 67.7573 7.33333C67.5279 7.24444 67.1754 7.16889 66.6996 7.10667C66.139 7.01778 65.676 6.91556 65.3107 6.8C64.9454 6.68444 64.6268 6.48 64.355 6.18667C64.0916 5.89333 63.96 5.47556 63.96 4.93333C63.96 4.48 64.0831 4.08 64.3295 3.73333C64.5844 3.37778 64.9496 3.10222 65.4254 2.90667C65.9096 2.71111 66.4788 2.61333 67.1329 2.61333C67.6171 2.61333 68.0971 2.67111 68.5728 2.78667C69.057 2.89333 69.4563 3.04444 69.7706 3.24L69.108 4.72C68.5049 4.36444 67.8465 4.18667 67.1329 4.18667C66.7081 4.18667 66.3896 4.24889 66.1772 4.37333C65.9648 4.49778 65.8586 4.65778 65.8586 4.85333C65.8586 5.07556 65.9733 5.23111 66.2027 5.32C66.432 5.40889 66.7973 5.49333 67.2985 5.57333C67.8592 5.67111 68.318 5.77778 68.6748 5.89333C69.0316 6 69.3416 6.2 69.605 6.49333C69.8683 6.78667 70 7.19556 70 7.72C70 8.16444 69.8726 8.56 69.6177 8.90667C69.3629 9.25333 68.9891 9.52444 68.4964 9.72C68.0121 9.90667 67.4345 10 66.7634 10Z" fill="#FF04B4"/>
</svg>
