<svg width="16" height="16" viewBox="0 0 16 16" fill="none" xmlns="http://www.w3.org/2000/svg">
<path d="M4.98682 12.2334L7.05348 13.8334C7.32015 14.1001 7.92015 14.2334 8.32015 14.2334H10.8535C11.6535 14.2334 12.5202 13.6334 12.7202 12.8334L14.3202 7.96673C14.6535 7.03339 14.0535 6.23339 13.0535 6.23339H10.3868C9.98682 6.23339 9.65348 5.90006 9.72015 5.43339L10.0535 3.30006C10.1868 2.70006 9.78682 2.03339 9.18682 1.83339C8.65348 1.63339 7.98682 1.90006 7.72015 2.30006L4.98682 6.36673" stroke="#18A70C" stroke-miterlimit="10"/>
<path d="M1.58643 12.2334V5.70002C1.58643 4.76668 1.98643 4.43335 2.91976 4.43335H3.58643C4.51976 4.43335 4.91976 4.76668 4.91976 5.70002V12.2334C4.91976 13.1667 4.51976 13.5 3.58643 13.5H2.91976C1.98643 13.5 1.58643 13.1667 1.58643 12.2334Z" stroke="#18A70C" stroke-linecap="round" stroke-linejoin="round"/>
</svg>
