<svg width="16" height="16" viewBox="0 0 16 16" fill="none" xmlns="http://www.w3.org/2000/svg">
<path d="M3.28027 13.52L4.46028 14.4334C4.61361 14.5867 4.95361 14.66 5.18694 14.66H6.63361C7.09361 14.66 7.58694 14.3201 7.70028 13.8601L8.61361 11.08C8.80694 10.5467 8.46028 10.0867 7.88694 10.0867H6.36028C6.13361 10.0867 5.94028 9.89332 5.98028 9.62665L6.17361 8.40668C6.24694 8.06668 6.02027 7.68001 5.68027 7.56668C5.37361 7.45334 4.99361 7.60669 4.84028 7.83336L3.28027 10.16" stroke="#696B86" stroke-miterlimit="10"/>
<path d="M1.3335 13.5201V9.78678C1.3335 9.25345 1.56016 9.06006 2.0935 9.06006H2.4735C3.00683 9.06006 3.2335 9.25345 3.2335 9.78678V13.5201C3.2335 14.0534 3.00683 14.2467 2.4735 14.2467H2.0935C1.56016 14.2467 1.3335 14.0601 1.3335 13.5201Z" stroke="#696B86" stroke-linecap="round" stroke-linejoin="round"/>
<path d="M12.7202 2.47994L11.5402 1.56661C11.3869 1.41328 11.0469 1.33997 10.8135 1.33997H9.36688C8.90688 1.33997 8.41354 1.67993 8.30021 2.13993L7.38688 4.91996C7.19354 5.4533 7.54021 5.91329 8.11354 5.91329H9.64021C9.86687 5.91329 10.0602 6.10667 10.0202 6.37333L9.82687 7.5933C9.75354 7.9333 9.98021 8.31998 10.3202 8.43331C10.6269 8.54664 11.0069 8.39329 11.1602 8.16663L12.7202 5.83997" stroke="#696B86" stroke-miterlimit="10"/>
<path d="M14.6671 2.47994V6.21326C14.6671 6.74659 14.4404 6.93998 13.9071 6.93998H13.5271C12.9938 6.93998 12.7671 6.74659 12.7671 6.21326V2.47994C12.7671 1.94661 12.9938 1.7533 13.5271 1.7533H13.9071C14.4404 1.7533 14.6671 1.93994 14.6671 2.47994Z" stroke="#696B86" stroke-linecap="round" stroke-linejoin="round"/>
</svg>
