<svg width="201" height="60" viewBox="0 0 201 60" fill="none" xmlns="http://www.w3.org/2000/svg">
<path d="M19.2 28.42L14.72 36.42H10.24L5.76 28.42V40.9H0V18.5H6.08L12.48 30.34L18.88 18.5H24.96V40.9H19.2V28.42Z" fill="white"/>
<path d="M46.76 40.9H29V18.5H46.76V22.98H34.76V27.3H44.2V31.78H34.76V36.42H46.76V40.9Z" fill="white"/>
<path d="M62.24 40.9H56.48V22.98H49.76V18.5H68.96V22.98H62.24V40.9Z" fill="white"/>
<path d="M98.3198 34.18L103.76 18.5H110L101.52 40.9H95.1198L79.22 0H85.46L98.3198 34.18Z" fill="#349FFC"/>
<path d="M80.6399 25.2199L75.1999 40.8999L68.9599 40.8999L77.4399 18.4999L83.8399 18.4999L99.7398 59.3999L93.4998 59.3999L80.6399 25.2199Z" fill="white"/>
<path d="M130.76 40.9H113V18.5H130.76V22.98H118.76V27.3H128.2V31.78H118.76V36.42H130.76V40.9Z" fill="white"/>
<path d="M134.76 18.5H148.2C150.44 18.5 152.061 19.012 153.064 20.036C154.088 21.0387 154.6 22.66 154.6 24.9V27.78C154.6 29.5507 154.301 30.9267 153.704 31.908C153.128 32.8893 152.2 33.54 150.92 33.86L154.92 40.9H148.68L145 34.18H140.52V40.9H134.76V18.5ZM148.84 24.9C148.84 23.62 148.2 22.98 146.92 22.98H140.52V29.7H146.92C148.2 29.7 148.84 29.06 148.84 27.78V24.9Z" fill="white"/>
<path d="M159.208 36.26C165.053 36.58 169.011 36.74 171.08 36.74C171.571 36.74 171.955 36.6013 172.232 36.324C172.531 36.0253 172.68 35.6307 172.68 35.14V32.26H165.32C163.08 32.26 161.448 31.7587 160.424 30.756C159.421 29.732 158.92 28.1 158.92 25.86V24.9C158.92 22.66 159.421 21.0387 160.424 20.036C161.448 19.012 163.08 18.5 165.32 18.5H176.552V22.98H166.6C165.32 22.98 164.68 23.62 164.68 24.9V25.54C164.68 26.82 165.32 27.46 166.6 27.46H172.36C174.451 27.46 175.987 27.9507 176.968 28.932C177.949 29.9133 178.44 31.4493 178.44 33.54V35.14C178.44 37.2307 177.949 38.7667 176.968 39.748C175.987 40.7293 174.451 41.22 172.36 41.22C171.272 41.22 170.12 41.1987 168.904 41.156L165.96 41.028C163.784 40.9213 161.533 40.772 159.208 40.58V36.26Z" fill="white"/>
<path d="M200.2 40.9H182.44V18.5H200.2V22.98H188.2V27.3H197.64V31.78H188.2V36.42H200.2V40.9Z" fill="white"/>
</svg>
