<svg width="201" height="60" viewBox="0 0 201 60" fill="none" xmlns="http://www.w3.org/2000/svg">
<path d="M19.2 28.42L15.8145 34.4656C15.1386 35.6725 13.8633 36.42 12.48 36.42V36.42C11.0967 36.42 9.82141 35.6725 9.14553 34.4656L5.76 28.42V38.02C5.76 39.6106 4.47058 40.9 2.88 40.9V40.9C1.28942 40.9 0 39.6106 0 38.02V22.309C0 20.2054 1.70537 18.5 3.80904 18.5V18.5C5.20812 18.5 6.49459 19.267 7.15988 20.4978L12.48 30.34L17.8001 20.4978C18.4654 19.267 19.7519 18.5 21.151 18.5V18.5C23.2546 18.5 24.96 20.2054 24.96 22.309V38.02C24.96 39.6106 23.6706 40.9 22.08 40.9V40.9C20.4894 40.9 19.2 39.6106 19.2 38.02V28.42Z" fill="white"/>
<path d="M46.76 38.66C46.76 39.8971 45.7571 40.9 44.52 40.9H32.4031C30.5236 40.9 29 39.3764 29 37.4969V22.052C29 20.0903 30.5903 18.5 32.552 18.5H44.52C45.7571 18.5 46.76 19.5029 46.76 20.74V20.74C46.76 21.9771 45.7571 22.98 44.52 22.98H34.76V27.3H41.96C43.1971 27.3 44.2 28.3029 44.2 29.54V29.54C44.2 30.7771 43.1971 31.78 41.96 31.78H34.76V36.42H44.52C45.7571 36.42 46.76 37.4229 46.76 38.66V38.66Z" fill="white"/>
<path d="M62.24 38.02C62.24 39.6106 60.9506 40.9 59.36 40.9V40.9C57.7694 40.9 56.48 39.6106 56.48 38.02V22.98H52C50.7629 22.98 49.76 21.9771 49.76 20.74V20.74C49.76 19.5029 50.7629 18.5 52 18.5H66.72C67.9571 18.5 68.96 19.5029 68.96 20.74V20.74C68.96 21.9771 67.9571 22.98 66.72 22.98H62.24V38.02Z" fill="white"/>
<path d="M98.3198 34.18L103.086 20.4425C103.489 19.2797 104.585 18.5 105.816 18.5V18.5C107.837 18.5 109.234 20.5223 108.519 22.4128L102.658 37.893C101.973 39.7028 100.24 40.9 98.3046 40.9V40.9C96.3846 40.9 94.6615 39.7211 93.9658 37.9316L80.7543 3.94686C80.016 2.04773 81.417 0 83.4546 0V0C84.6611 0 85.7413 0.747714 86.1661 1.87694L98.3198 34.18Z" fill="#349FFC"/>
<path d="M80.6399 25.2199L75.8739 38.9574C75.4704 40.1203 74.3746 40.8999 73.1438 40.8999V40.8999C71.1223 40.8999 69.7255 38.8776 70.4412 36.9871L76.3016 21.5069C76.9867 19.6971 78.72 18.4999 80.6551 18.4999V18.4999C82.5751 18.4999 84.2982 19.6788 84.9939 21.4683L98.2054 55.453C98.9437 57.3522 97.5427 59.3999 95.5051 59.3999V59.3999C94.2986 59.3999 93.2184 58.6522 92.7936 57.523L80.6399 25.2199Z" fill="white"/>
<path d="M130.76 38.66C130.76 39.8971 129.757 40.9 128.52 40.9H116.343C114.497 40.9 113 39.4033 113 37.5569V21.6226C113 19.898 114.398 18.5 116.123 18.5H128.52C129.757 18.5 130.76 19.5029 130.76 20.74V20.74C130.76 21.9771 129.757 22.98 128.52 22.98H118.76V27.3H125.96C127.197 27.3 128.2 28.3029 128.2 29.54V29.54C128.2 30.7771 127.197 31.78 125.96 31.78H118.76V36.42H128.52C129.757 36.42 130.76 37.4229 130.76 38.66V38.66Z" fill="white"/>
<path d="M134.76 23.62C134.76 20.7923 137.052 18.5 139.88 18.5H148.2C150.44 18.5 152.061 19.012 153.064 20.036C154.088 21.0387 154.6 22.66 154.6 24.9V27.78C154.6 29.5507 154.301 30.9267 153.704 31.908C153.128 32.8893 152.2 33.54 150.92 33.86L152.628 36.8657C153.65 38.6658 152.35 40.9 150.28 40.9V40.9C149.293 40.9 148.385 40.362 147.911 39.4967L145 34.18H140.52V38.02C140.52 39.6106 139.23 40.9 137.64 40.9V40.9C136.049 40.9 134.76 39.6106 134.76 38.02V23.62ZM148.84 24.9C148.84 23.62 148.2 22.98 146.92 22.98H140.52V29.7H146.92C148.2 29.7 148.84 29.06 148.84 27.78V24.9Z" fill="white"/>
<path d="M159.208 38.5679C159.208 37.3142 160.262 36.3181 161.514 36.383C166.107 36.621 169.295 36.74 171.08 36.74C171.571 36.74 171.955 36.6013 172.232 36.324C172.531 36.0253 172.68 35.6307 172.68 35.14V32.26H165.32C163.08 32.26 161.448 31.7587 160.424 30.756C159.421 29.732 158.92 28.1 158.92 25.86V24.9C158.92 22.66 159.421 21.0387 160.424 20.036C161.448 19.012 163.08 18.5 165.32 18.5H174.312C175.549 18.5 176.552 19.5029 176.552 20.74V20.74C176.552 21.9771 175.549 22.98 174.312 22.98H166.6C165.32 22.98 164.68 23.62 164.68 24.9V25.54C164.68 26.82 165.32 27.46 166.6 27.46H172.36C174.451 27.46 175.987 27.9507 176.968 28.932C177.949 29.9133 178.44 31.4493 178.44 33.54V35.14C178.44 37.2307 177.949 38.7667 176.968 39.748C175.987 40.7293 174.451 41.22 172.36 41.22C171.272 41.22 170.12 41.1987 168.904 41.156L165.96 41.028C164.416 40.9523 162.834 40.8551 161.214 40.7364C160.08 40.6533 159.208 39.705 159.208 38.5679V38.5679Z" fill="white"/>
<path d="M200.2 38.66C200.2 39.8971 199.197 40.9 197.96 40.9H186.915C184.443 40.9 182.44 38.8965 182.44 36.425V23.0832C182.44 20.552 184.492 18.5 187.023 18.5H197.96C199.197 18.5 200.2 19.5029 200.2 20.74V20.74C200.2 21.9771 199.197 22.98 197.96 22.98H188.2V27.3H195.4C196.637 27.3 197.64 28.3029 197.64 29.54V29.54C197.64 30.7771 196.637 31.78 195.4 31.78H188.2V36.42H197.96C199.197 36.42 200.2 37.4229 200.2 38.66V38.66Z" fill="white"/>
</svg>
